<mxfile host="app.diagrams.net" agent="Mozilla/5.0 (Windows NT 10.0; Win64; x64) AppleWebKit/537.36 (KHTML, like Gecko) Chrome/131.0.0.0 Safari/537.36" version="26.0.4">
  <diagram name="Страница — 1" id="c0rmzO42i5S5-6AuYbNh">
    <mxGraphModel dx="1195" dy="643" grid="1" gridSize="10" guides="1" tooltips="1" connect="1" arrows="1" fold="1" page="1" pageScale="1" pageWidth="1169" pageHeight="827" math="0" shadow="0">
      <root>
        <mxCell id="0" />
        <mxCell id="1" parent="0" />
        <mxCell id="Nwkl9uQ9HmGx1w59XUbe-11" value="account" style="swimlane;whiteSpace=wrap;html=1;align=center;fontSize=12;startSize=20;" parent="1" vertex="1">
          <mxGeometry x="20" y="640" width="500" height="280" as="geometry" />
        </mxCell>
        <mxCell id="vsAvf6VTHKERCvfl-qEp-13" value="&lt;span style=&quot;font-weight: 700;&quot;&gt;authentication&lt;/span&gt;" style="swimlane;fontStyle=0;childLayout=stackLayout;horizontal=1;startSize=21;horizontalStack=0;resizeParent=1;resizeParentMax=0;resizeLast=0;collapsible=1;marginBottom=0;whiteSpace=wrap;html=1;movable=1;resizable=1;rotatable=1;deletable=1;editable=1;locked=0;connectable=1;fillColor=#d5e8d4;strokeColor=#82b366;" vertex="1" parent="Nwkl9uQ9HmGx1w59XUbe-11">
          <mxGeometry x="20" y="40" width="340" height="101" as="geometry" />
        </mxCell>
        <mxCell id="vsAvf6VTHKERCvfl-qEp-14" value="&lt;font style=&quot;color: rgb(0, 0, 0);&quot;&gt;1.1. Регистрация новых пользователей&lt;/font&gt;" style="text;strokeColor=#d79b00;fillColor=#ffe6cc;align=left;verticalAlign=middle;spacingLeft=4;spacingRight=4;overflow=hidden;points=[[0,0.5],[1,0.5]];portConstraint=eastwest;rotatable=0;whiteSpace=wrap;html=1;" vertex="1" parent="vsAvf6VTHKERCvfl-qEp-13">
          <mxGeometry y="21" width="340" height="20" as="geometry" />
        </mxCell>
        <mxCell id="vsAvf6VTHKERCvfl-qEp-15" value="1.2. Авторизация пользователей на основе JWT" style="text;align=left;verticalAlign=middle;spacingLeft=4;spacingRight=4;overflow=hidden;points=[[0,0.5],[1,0.5]];portConstraint=eastwest;rotatable=0;whiteSpace=wrap;html=1;" vertex="1" parent="vsAvf6VTHKERCvfl-qEp-13">
          <mxGeometry y="41" width="340" height="20" as="geometry" />
        </mxCell>
        <mxCell id="vsAvf6VTHKERCvfl-qEp-16" value="&lt;div style=&quot;text-align: center;&quot;&gt;&lt;span style=&quot;text-wrap-mode: nowrap;&quot;&gt;1.18. Получение детальной информации о пользователе&lt;/span&gt;&lt;/div&gt;" style="text;strokeColor=#d79b00;fillColor=#ffe6cc;align=left;verticalAlign=middle;spacingLeft=4;spacingRight=4;overflow=hidden;points=[[0,0.5],[1,0.5]];portConstraint=eastwest;rotatable=1;whiteSpace=wrap;html=1;movable=1;resizable=1;deletable=1;editable=1;locked=0;connectable=1;" vertex="1" parent="vsAvf6VTHKERCvfl-qEp-13">
          <mxGeometry y="61" width="340" height="20" as="geometry" />
        </mxCell>
        <mxCell id="vsAvf6VTHKERCvfl-qEp-108" value="&lt;div style=&quot;text-align: center;&quot;&gt;&lt;span style=&quot;background-color: transparent; text-wrap-mode: nowrap;&quot;&gt;1.19. Смена пароля пользователя&lt;/span&gt;&lt;/div&gt;" style="text;strokeColor=#d79b00;fillColor=#ffe6cc;align=left;verticalAlign=middle;spacingLeft=4;spacingRight=4;overflow=hidden;points=[[0,0.5],[1,0.5]];portConstraint=eastwest;rotatable=1;whiteSpace=wrap;html=1;movable=1;resizable=1;deletable=1;editable=1;locked=0;connectable=1;" vertex="1" parent="vsAvf6VTHKERCvfl-qEp-13">
          <mxGeometry y="81" width="340" height="20" as="geometry" />
        </mxCell>
        <mxCell id="vsAvf6VTHKERCvfl-qEp-21" value="&lt;span style=&quot;font-weight: 700;&quot;&gt;blog-user&lt;/span&gt;" style="swimlane;fontStyle=0;childLayout=stackLayout;horizontal=1;startSize=21;horizontalStack=0;resizeParent=1;resizeParentMax=0;resizeLast=0;collapsible=1;marginBottom=0;whiteSpace=wrap;html=1;movable=1;resizable=1;rotatable=1;deletable=1;editable=1;locked=0;connectable=1;fillColor=#ffe6cc;strokeColor=#d79b00;" vertex="1" parent="Nwkl9uQ9HmGx1w59XUbe-11">
          <mxGeometry x="20" y="179" width="340" height="81" as="geometry" />
        </mxCell>
        <mxCell id="vsAvf6VTHKERCvfl-qEp-24" value="&lt;font style=&quot;color: rgb(0, 0, 0);&quot;&gt;1.1. Регистрация новых пользователей&lt;/font&gt;" style="text;align=left;verticalAlign=middle;spacingLeft=4;spacingRight=4;overflow=hidden;points=[[0,0.5],[1,0.5]];portConstraint=eastwest;rotatable=0;whiteSpace=wrap;html=1;" vertex="1" parent="vsAvf6VTHKERCvfl-qEp-21">
          <mxGeometry y="21" width="340" height="20" as="geometry" />
        </mxCell>
        <mxCell id="vsAvf6VTHKERCvfl-qEp-98" value="&lt;span style=&quot;text-align: center; text-wrap-mode: nowrap;&quot;&gt;1.18. Получение детальной информации о пользователе&lt;/span&gt;" style="text;align=left;verticalAlign=middle;spacingLeft=4;spacingRight=4;overflow=hidden;points=[[0,0.5],[1,0.5]];portConstraint=eastwest;rotatable=0;whiteSpace=wrap;html=1;" vertex="1" parent="vsAvf6VTHKERCvfl-qEp-21">
          <mxGeometry y="41" width="340" height="20" as="geometry" />
        </mxCell>
        <mxCell id="vsAvf6VTHKERCvfl-qEp-99" value="&lt;span style=&quot;text-align: center; text-wrap-mode: nowrap;&quot;&gt;1.19. Смена пароля пользователя&lt;span style=&quot;white-space: pre;&quot;&gt;&#x9;&lt;/span&gt;&lt;/span&gt;" style="text;align=left;verticalAlign=middle;spacingLeft=4;spacingRight=4;overflow=hidden;points=[[0,0.5],[1,0.5]];portConstraint=eastwest;rotatable=0;whiteSpace=wrap;html=1;" vertex="1" parent="vsAvf6VTHKERCvfl-qEp-21">
          <mxGeometry y="61" width="340" height="20" as="geometry" />
        </mxCell>
        <mxCell id="Nwkl9uQ9HmGx1w59XUbe-8" value="MongoDB" style="shape=datastore;whiteSpace=wrap;html=1;fontSize=12;" parent="Nwkl9uQ9HmGx1w59XUbe-11" vertex="1">
          <mxGeometry x="400" y="180" width="80" height="84.5" as="geometry" />
        </mxCell>
        <mxCell id="vsAvf6VTHKERCvfl-qEp-102" value="" style="endArrow=classic;html=1;rounded=0;entryX=0.5;entryY=0;entryDx=0;entryDy=0;" edge="1" parent="Nwkl9uQ9HmGx1w59XUbe-11" source="vsAvf6VTHKERCvfl-qEp-13" target="vsAvf6VTHKERCvfl-qEp-21">
          <mxGeometry relative="1" as="geometry">
            <mxPoint x="545" y="216" as="sourcePoint" />
            <mxPoint x="685" y="261" as="targetPoint" />
          </mxGeometry>
        </mxCell>
        <mxCell id="vsAvf6VTHKERCvfl-qEp-106" value="" style="endArrow=classic;html=1;rounded=0;entryX=0;entryY=0.3;entryDx=0;entryDy=0;" edge="1" parent="Nwkl9uQ9HmGx1w59XUbe-11" target="Nwkl9uQ9HmGx1w59XUbe-8">
          <mxGeometry relative="1" as="geometry">
            <mxPoint x="360" y="210" as="sourcePoint" />
            <mxPoint x="410" y="269" as="targetPoint" />
          </mxGeometry>
        </mxCell>
        <mxCell id="vsAvf6VTHKERCvfl-qEp-107" value="" style="endArrow=classic;html=1;rounded=0;exitX=1;exitY=0.5;exitDx=0;exitDy=0;entryX=0;entryY=0.5;entryDx=0;entryDy=0;" edge="1" parent="Nwkl9uQ9HmGx1w59XUbe-11" source="vsAvf6VTHKERCvfl-qEp-15" target="vsAvf6VTHKERCvfl-qEp-113">
          <mxGeometry relative="1" as="geometry">
            <mxPoint x="492" y="252" as="sourcePoint" />
            <mxPoint x="380" y="120" as="targetPoint" />
          </mxGeometry>
        </mxCell>
        <mxCell id="vsAvf6VTHKERCvfl-qEp-111" value="" style="endArrow=classic;html=1;rounded=0;entryX=-0.012;entryY=0.578;entryDx=0;entryDy=0;entryPerimeter=0;exitX=1;exitY=0.5;exitDx=0;exitDy=0;" edge="1" parent="Nwkl9uQ9HmGx1w59XUbe-11" source="vsAvf6VTHKERCvfl-qEp-98" target="Nwkl9uQ9HmGx1w59XUbe-8">
          <mxGeometry relative="1" as="geometry">
            <mxPoint x="370" y="220" as="sourcePoint" />
            <mxPoint x="410" y="178" as="targetPoint" />
          </mxGeometry>
        </mxCell>
        <mxCell id="vsAvf6VTHKERCvfl-qEp-112" value="" style="endArrow=classic;html=1;rounded=0;entryX=0;entryY=0.833;entryDx=0;entryDy=0;exitX=1;exitY=0.5;exitDx=0;exitDy=0;exitPerimeter=0;entryPerimeter=0;" edge="1" parent="Nwkl9uQ9HmGx1w59XUbe-11" source="vsAvf6VTHKERCvfl-qEp-99" target="Nwkl9uQ9HmGx1w59XUbe-8">
          <mxGeometry relative="1" as="geometry">
            <mxPoint x="370" y="240" as="sourcePoint" />
            <mxPoint x="412" y="206" as="targetPoint" />
          </mxGeometry>
        </mxCell>
        <mxCell id="vsAvf6VTHKERCvfl-qEp-113" value="MongoDB" style="shape=datastore;whiteSpace=wrap;html=1;fontSize=12;" vertex="1" parent="Nwkl9uQ9HmGx1w59XUbe-11">
          <mxGeometry x="400" y="48.25" width="80" height="84.5" as="geometry" />
        </mxCell>
        <mxCell id="Nwkl9uQ9HmGx1w59XUbe-13" value="Notify" style="swimlane;whiteSpace=wrap;html=1;align=center;fontSize=12;startSize=20;" parent="1" vertex="1">
          <mxGeometry x="595" y="860" width="470" height="60" as="geometry" />
        </mxCell>
        <mxCell id="Nwkl9uQ9HmGx1w59XUbe-45" value="1.16. Рассылка почтовых уведомлений на email о появлении новых публикаций." style="text;html=1;align=center;verticalAlign=middle;resizable=0;points=[];autosize=1;strokeColor=none;fillColor=none;" parent="Nwkl9uQ9HmGx1w59XUbe-13" vertex="1">
          <mxGeometry x="-1" y="30" width="470" height="30" as="geometry" />
        </mxCell>
        <mxCell id="Nwkl9uQ9HmGx1w59XUbe-14" value="UploadFiles" style="swimlane;whiteSpace=wrap;html=1;align=center;fontSize=12;startSize=19;" parent="1" vertex="1">
          <mxGeometry x="595" y="790" width="460" height="60" as="geometry" />
        </mxCell>
        <mxCell id="Nwkl9uQ9HmGx1w59XUbe-49" value="Загрузка и хранение&amp;nbsp;&lt;span style=&quot;background-color: transparent; color: light-dark(rgb(0, 0, 0), rgb(255, 255, 255));&quot;&gt;файлов&lt;/span&gt;" style="text;html=1;align=left;verticalAlign=middle;resizable=0;points=[];autosize=1;strokeColor=none;fillColor=none;" parent="Nwkl9uQ9HmGx1w59XUbe-14" vertex="1">
          <mxGeometry x="14" y="30" width="180" height="30" as="geometry" />
        </mxCell>
        <mxCell id="vsAvf6VTHKERCvfl-qEp-60" value="&lt;b&gt;api-gate&lt;/b&gt;" style="swimlane;whiteSpace=wrap;html=1;align=center;fontSize=12;startSize=20;" vertex="1" parent="1">
          <mxGeometry x="20" y="20" width="410" height="580" as="geometry" />
        </mxCell>
        <mxCell id="vsAvf6VTHKERCvfl-qEp-4" value="" style="swimlane;fontStyle=0;childLayout=stackLayout;horizontal=1;startSize=10;horizontalStack=0;resizeParent=1;resizeParentMax=0;resizeLast=0;collapsible=1;marginBottom=0;whiteSpace=wrap;html=1;movable=1;resizable=1;rotatable=1;deletable=1;editable=1;locked=0;connectable=1;" vertex="1" parent="vsAvf6VTHKERCvfl-qEp-60">
          <mxGeometry x="10" y="30" width="390" height="390" as="geometry" />
        </mxCell>
        <mxCell id="vsAvf6VTHKERCvfl-qEp-5" value="&lt;font style=&quot;color: rgb(0, 0, 0);&quot;&gt;1.1. Регистрация новых пользователей&lt;/font&gt;" style="text;strokeColor=#d79b00;fillColor=#ffe6cc;align=left;verticalAlign=middle;spacingLeft=4;spacingRight=4;overflow=hidden;points=[[0,0.5],[1,0.5]];portConstraint=eastwest;rotatable=0;whiteSpace=wrap;html=1;direction=south;" vertex="1" parent="vsAvf6VTHKERCvfl-qEp-4">
          <mxGeometry y="10" width="390" height="20" as="geometry" />
        </mxCell>
        <mxCell id="vsAvf6VTHKERCvfl-qEp-6" value="1.2. Авторизация пользователей на основе JWT" style="text;strokeColor=#82b366;fillColor=#d5e8d4;align=left;verticalAlign=middle;spacingLeft=4;spacingRight=4;overflow=hidden;points=[[0,0.5],[1,0.5]];portConstraint=eastwest;rotatable=0;whiteSpace=wrap;html=1;" vertex="1" parent="vsAvf6VTHKERCvfl-qEp-4">
          <mxGeometry y="30" width="390" height="20" as="geometry" />
        </mxCell>
        <mxCell id="vsAvf6VTHKERCvfl-qEp-8" value="&lt;span style=&quot;text-wrap-mode: nowrap;&quot;&gt;1.3. Создание новых публикаций в блоге разных видов&lt;/span&gt;" style="text;strokeColor=#9673a6;fillColor=#e1d5e7;align=left;verticalAlign=middle;spacingLeft=4;spacingRight=4;overflow=hidden;points=[[0,0.5],[1,0.5]];portConstraint=eastwest;rotatable=0;whiteSpace=wrap;html=1;" vertex="1" parent="vsAvf6VTHKERCvfl-qEp-4">
          <mxGeometry y="50" width="390" height="20" as="geometry" />
        </mxCell>
        <mxCell id="vsAvf6VTHKERCvfl-qEp-137" value="&lt;span style=&quot;text-wrap-mode: nowrap;&quot;&gt;1.4. Просмотр детальной информации о публикации&lt;/span&gt;" style="text;strokeColor=#9673a6;fillColor=#e1d5e7;align=left;verticalAlign=middle;spacingLeft=4;spacingRight=4;overflow=hidden;points=[[0,0.5],[1,0.5]];portConstraint=eastwest;rotatable=0;whiteSpace=wrap;html=1;" vertex="1" parent="vsAvf6VTHKERCvfl-qEp-4">
          <mxGeometry y="70" width="390" height="20" as="geometry" />
        </mxCell>
        <mxCell id="vsAvf6VTHKERCvfl-qEp-152" value="&lt;span style=&quot;text-wrap-mode: nowrap;&quot;&gt;1.5. Редактирование публикаций в блоге&lt;/span&gt;" style="text;align=left;verticalAlign=middle;spacingLeft=4;spacingRight=4;overflow=hidden;points=[[0,0.5],[1,0.5]];portConstraint=eastwest;rotatable=0;whiteSpace=wrap;html=1;fillColor=#e1d5e7;strokeColor=#9673a6;" vertex="1" parent="vsAvf6VTHKERCvfl-qEp-4">
          <mxGeometry y="90" width="390" height="20" as="geometry" />
        </mxCell>
        <mxCell id="vsAvf6VTHKERCvfl-qEp-153" value="&lt;div style=&quot;text-wrap-mode: nowrap;&quot;&gt;1.6. Удаление публикаций в блоге&lt;/div&gt;" style="text;align=left;verticalAlign=middle;spacingLeft=4;spacingRight=4;overflow=hidden;points=[[0,0.5],[1,0.5]];portConstraint=eastwest;rotatable=0;whiteSpace=wrap;html=1;fillColor=#e1d5e7;strokeColor=#9673a6;" vertex="1" parent="vsAvf6VTHKERCvfl-qEp-4">
          <mxGeometry y="110" width="390" height="20" as="geometry" />
        </mxCell>
        <mxCell id="vsAvf6VTHKERCvfl-qEp-154" value="&lt;span style=&quot;text-wrap-mode: nowrap;&quot;&gt;1.7. Загрузка изображений для публикации в блоге&lt;/span&gt;" style="text;align=left;verticalAlign=middle;spacingLeft=4;spacingRight=4;overflow=hidden;points=[[0,0.5],[1,0.5]];portConstraint=eastwest;rotatable=0;whiteSpace=wrap;html=1;fillColor=#f5f5f5;fontColor=#333333;strokeColor=#666666;" vertex="1" parent="vsAvf6VTHKERCvfl-qEp-4">
          <mxGeometry y="130" width="390" height="20" as="geometry" />
        </mxCell>
        <mxCell id="vsAvf6VTHKERCvfl-qEp-189" value="&lt;span style=&quot;text-wrap-mode: nowrap;&quot;&gt;1.8. Комментирование публикаций в блоге&lt;/span&gt;" style="text;align=left;verticalAlign=middle;spacingLeft=4;spacingRight=4;overflow=hidden;points=[[0,0.5],[1,0.5]];portConstraint=eastwest;rotatable=0;whiteSpace=wrap;html=1;fillColor=#e1d5e7;strokeColor=#9673a6;" vertex="1" parent="vsAvf6VTHKERCvfl-qEp-4">
          <mxGeometry y="150" width="390" height="20" as="geometry" />
        </mxCell>
        <mxCell id="vsAvf6VTHKERCvfl-qEp-155" value="&lt;span style=&quot;text-wrap-mode: nowrap;&quot;&gt;1.10. Пагинация для публикаций&lt;/span&gt;" style="text;align=left;verticalAlign=middle;spacingLeft=4;spacingRight=4;overflow=hidden;points=[[0,0.5],[1,0.5]];portConstraint=eastwest;rotatable=0;whiteSpace=wrap;html=1;fillColor=#e1d5e7;strokeColor=#9673a6;" vertex="1" parent="vsAvf6VTHKERCvfl-qEp-4">
          <mxGeometry y="170" width="390" height="20" as="geometry" />
        </mxCell>
        <mxCell id="vsAvf6VTHKERCvfl-qEp-156" value="&lt;span style=&quot;text-wrap-mode: nowrap;&quot;&gt;1.11. Получение списка публикаций&lt;/span&gt;" style="text;align=left;verticalAlign=middle;spacingLeft=4;spacingRight=4;overflow=hidden;points=[[0,0.5],[1,0.5]];portConstraint=eastwest;rotatable=0;whiteSpace=wrap;html=1;fillColor=#e1d5e7;strokeColor=#9673a6;" vertex="1" parent="vsAvf6VTHKERCvfl-qEp-4">
          <mxGeometry y="190" width="390" height="20" as="geometry" />
        </mxCell>
        <mxCell id="vsAvf6VTHKERCvfl-qEp-160" value="&lt;span style=&quot;text-wrap-mode: nowrap;&quot;&gt;1.17. Поиск публикаций по названию? опечатка, по тегу?&lt;/span&gt;" style="text;align=left;verticalAlign=middle;spacingLeft=4;spacingRight=4;overflow=hidden;points=[[0,0.5],[1,0.5]];portConstraint=eastwest;rotatable=0;whiteSpace=wrap;html=1;fillColor=#e1d5e7;strokeColor=#9673a6;" vertex="1" parent="vsAvf6VTHKERCvfl-qEp-4">
          <mxGeometry y="210" width="390" height="20" as="geometry" />
        </mxCell>
        <mxCell id="vsAvf6VTHKERCvfl-qEp-159" value="&lt;span style=&quot;text-wrap-mode: nowrap;&quot;&gt;1.15. Категоризация публикаций по тегам&lt;/span&gt;" style="text;align=left;verticalAlign=middle;spacingLeft=4;spacingRight=4;overflow=hidden;points=[[0,0.5],[1,0.5]];portConstraint=eastwest;rotatable=0;whiteSpace=wrap;html=1;fillColor=#e1d5e7;strokeColor=#9673a6;" vertex="1" parent="vsAvf6VTHKERCvfl-qEp-4">
          <mxGeometry y="230" width="390" height="20" as="geometry" />
        </mxCell>
        <mxCell id="vsAvf6VTHKERCvfl-qEp-158" value="&lt;span style=&quot;text-wrap-mode: nowrap;&quot;&gt;1.13. Репост публикаций&lt;/span&gt;" style="text;align=left;verticalAlign=middle;spacingLeft=4;spacingRight=4;overflow=hidden;points=[[0,0.5],[1,0.5]];portConstraint=eastwest;rotatable=0;whiteSpace=wrap;html=1;fillColor=#e1d5e7;strokeColor=#9673a6;" vertex="1" parent="vsAvf6VTHKERCvfl-qEp-4">
          <mxGeometry y="250" width="390" height="20" as="geometry" />
        </mxCell>
        <mxCell id="vsAvf6VTHKERCvfl-qEp-157" value="&lt;span style=&quot;text-wrap-mode: nowrap;&quot;&gt;1.12. Получение списка публикаций с применением сортировки&lt;/span&gt;" style="text;align=left;verticalAlign=middle;spacingLeft=4;spacingRight=4;overflow=hidden;points=[[0,0.5],[1,0.5]];portConstraint=eastwest;rotatable=0;whiteSpace=wrap;html=1;fillColor=#e1d5e7;strokeColor=#9673a6;" vertex="1" parent="vsAvf6VTHKERCvfl-qEp-4">
          <mxGeometry y="270" width="390" height="20" as="geometry" />
        </mxCell>
        <mxCell id="vsAvf6VTHKERCvfl-qEp-72" value="Item 1" style="text;strokeColor=none;fillColor=none;align=left;verticalAlign=middle;spacingLeft=4;spacingRight=4;overflow=hidden;points=[[0,0.5],[1,0.5]];portConstraint=eastwest;rotatable=0;whiteSpace=wrap;html=1;" vertex="1" parent="vsAvf6VTHKERCvfl-qEp-4">
          <mxGeometry y="290" width="390" height="20" as="geometry" />
        </mxCell>
        <mxCell id="vsAvf6VTHKERCvfl-qEp-110" value="Item 1" style="text;strokeColor=none;fillColor=none;align=left;verticalAlign=middle;spacingLeft=4;spacingRight=4;overflow=hidden;points=[[0,0.5],[1,0.5]];portConstraint=eastwest;rotatable=0;whiteSpace=wrap;html=1;" vertex="1" parent="vsAvf6VTHKERCvfl-qEp-4">
          <mxGeometry y="310" width="390" height="20" as="geometry" />
        </mxCell>
        <mxCell id="vsAvf6VTHKERCvfl-qEp-109" value="Item 1" style="text;strokeColor=none;fillColor=none;align=left;verticalAlign=middle;spacingLeft=4;spacingRight=4;overflow=hidden;points=[[0,0.5],[1,0.5]];portConstraint=eastwest;rotatable=0;whiteSpace=wrap;html=1;" vertex="1" parent="vsAvf6VTHKERCvfl-qEp-4">
          <mxGeometry y="330" width="390" height="20" as="geometry" />
        </mxCell>
        <mxCell id="vsAvf6VTHKERCvfl-qEp-73" value="&lt;span style=&quot;text-align: center; text-wrap-mode: nowrap;&quot;&gt;1.18. Получение детальной информации о пользователе&lt;/span&gt;" style="text;strokeColor=#d79b00;fillColor=#ffe6cc;align=left;verticalAlign=middle;spacingLeft=4;spacingRight=4;overflow=hidden;points=[[0,0.5],[1,0.5]];portConstraint=eastwest;rotatable=0;whiteSpace=wrap;html=1;" vertex="1" parent="vsAvf6VTHKERCvfl-qEp-4">
          <mxGeometry y="350" width="390" height="20" as="geometry" />
        </mxCell>
        <mxCell id="vsAvf6VTHKERCvfl-qEp-74" value="&lt;span style=&quot;text-align: center; text-wrap-mode: nowrap;&quot;&gt;1.19. Смена пароля пользователя&lt;/span&gt;" style="text;strokeColor=#d79b00;fillColor=#ffe6cc;align=left;verticalAlign=middle;spacingLeft=4;spacingRight=4;overflow=hidden;points=[[0,0.5],[1,0.5]];portConstraint=eastwest;rotatable=0;whiteSpace=wrap;html=1;" vertex="1" parent="vsAvf6VTHKERCvfl-qEp-4">
          <mxGeometry y="370" width="390" height="20" as="geometry" />
        </mxCell>
        <mxCell id="vsAvf6VTHKERCvfl-qEp-161" value="" style="swimlane;fontStyle=0;childLayout=stackLayout;horizontal=1;startSize=10;horizontalStack=0;resizeParent=1;resizeParentMax=0;resizeLast=0;collapsible=1;marginBottom=0;whiteSpace=wrap;html=1;movable=1;resizable=1;rotatable=1;deletable=1;editable=1;locked=0;connectable=1;" vertex="1" parent="vsAvf6VTHKERCvfl-qEp-60">
          <mxGeometry x="10" y="440" width="390" height="130" as="geometry" />
        </mxCell>
        <mxCell id="vsAvf6VTHKERCvfl-qEp-184" value="&lt;span style=&quot;text-wrap-mode: nowrap;&quot;&gt;Список постов дополняет информацией об авторе (пользователе):&lt;/span&gt;&lt;div&gt;&lt;span style=&quot;text-wrap-mode: nowrap;&quot;&gt;имя, фамилия, идентификатор, email + фото&lt;/span&gt;&lt;/div&gt;" style="text;align=left;verticalAlign=middle;spacingLeft=4;spacingRight=4;overflow=hidden;points=[[0,0.5],[1,0.5]];portConstraint=eastwest;rotatable=0;whiteSpace=wrap;html=1;fillColor=#e1d5e7;strokeColor=#9673a6;" vertex="1" parent="vsAvf6VTHKERCvfl-qEp-161">
          <mxGeometry y="10" width="390" height="40" as="geometry" />
        </mxCell>
        <mxCell id="vsAvf6VTHKERCvfl-qEp-186" value="&lt;span style=&quot;text-wrap-mode: nowrap;&quot;&gt;Пост дополняет информацией об авторе (пользователе):&lt;/span&gt;&lt;div&gt;&lt;span style=&quot;text-wrap-mode: nowrap;&quot;&gt;имя, фамилия, идентификатор, email + фото + дата регистрации&lt;/span&gt;&lt;/div&gt;" style="text;align=left;verticalAlign=middle;spacingLeft=4;spacingRight=4;overflow=hidden;points=[[0,0.5],[1,0.5]];portConstraint=eastwest;rotatable=0;whiteSpace=wrap;html=1;fillColor=#e1d5e7;strokeColor=#9673a6;" vertex="1" parent="vsAvf6VTHKERCvfl-qEp-161">
          <mxGeometry y="50" width="390" height="40" as="geometry" />
        </mxCell>
        <mxCell id="vsAvf6VTHKERCvfl-qEp-174" value="&lt;span style=&quot;text-wrap-mode: nowrap;&quot;&gt;Список комментариев дополняет информацией об пользователе:&lt;/span&gt;&lt;div&gt;&lt;span style=&quot;text-wrap-mode: nowrap;&quot;&gt;имя, фамилия, идентификатор, email + фото&lt;/span&gt;&lt;/div&gt;" style="text;align=left;verticalAlign=middle;spacingLeft=4;spacingRight=4;overflow=hidden;points=[[0,0.5],[1,0.5]];portConstraint=eastwest;rotatable=0;whiteSpace=wrap;html=1;fillColor=#e1d5e7;strokeColor=#9673a6;" vertex="1" parent="vsAvf6VTHKERCvfl-qEp-161">
          <mxGeometry y="90" width="390" height="40" as="geometry" />
        </mxCell>
        <mxCell id="vsAvf6VTHKERCvfl-qEp-114" value="" style="endArrow=classic;html=1;rounded=0;entryX=0.5;entryY=0;entryDx=0;entryDy=0;exitX=0.5;exitY=1;exitDx=0;exitDy=0;" edge="1" parent="1" source="vsAvf6VTHKERCvfl-qEp-60" target="Nwkl9uQ9HmGx1w59XUbe-11">
          <mxGeometry relative="1" as="geometry">
            <mxPoint x="270" y="430" as="sourcePoint" />
            <mxPoint x="760" y="650" as="targetPoint" />
          </mxGeometry>
        </mxCell>
        <mxCell id="vsAvf6VTHKERCvfl-qEp-115" value="blog" style="swimlane;whiteSpace=wrap;html=1;align=center;fontSize=12;startSize=20;" vertex="1" parent="1">
          <mxGeometry x="600" y="20" width="550" height="490" as="geometry" />
        </mxCell>
        <mxCell id="vsAvf6VTHKERCvfl-qEp-116" value="&lt;span style=&quot;font-weight: 700;&quot;&gt;blog-post&lt;/span&gt;" style="swimlane;fontStyle=0;childLayout=stackLayout;horizontal=1;startSize=21;horizontalStack=0;resizeParent=1;resizeParentMax=0;resizeLast=0;collapsible=1;marginBottom=0;whiteSpace=wrap;html=1;movable=1;resizable=1;rotatable=1;deletable=1;editable=1;locked=0;connectable=1;fillColor=#e1d5e7;strokeColor=#9673a6;" vertex="1" parent="vsAvf6VTHKERCvfl-qEp-115">
          <mxGeometry x="20" y="40" width="380" height="280" as="geometry" />
        </mxCell>
        <mxCell id="vsAvf6VTHKERCvfl-qEp-117" value="&lt;span style=&quot;text-wrap-mode: nowrap;&quot;&gt;1.3. Создание новых публикаций в блоге разных видов&lt;/span&gt;" style="text;align=left;verticalAlign=middle;spacingLeft=4;spacingRight=4;overflow=hidden;points=[[0,0.5],[1,0.5]];portConstraint=eastwest;rotatable=0;whiteSpace=wrap;html=1;" vertex="1" parent="vsAvf6VTHKERCvfl-qEp-116">
          <mxGeometry y="21" width="380" height="20" as="geometry" />
        </mxCell>
        <mxCell id="vsAvf6VTHKERCvfl-qEp-141" value="&lt;span style=&quot;text-wrap-mode: nowrap;&quot;&gt;1.4. Просмотр детальной информации о публикации&lt;/span&gt;" style="text;align=left;verticalAlign=middle;spacingLeft=4;spacingRight=4;overflow=hidden;points=[[0,0.5],[1,0.5]];portConstraint=eastwest;rotatable=0;whiteSpace=wrap;html=1;" vertex="1" parent="vsAvf6VTHKERCvfl-qEp-116">
          <mxGeometry y="41" width="380" height="20" as="geometry" />
        </mxCell>
        <mxCell id="vsAvf6VTHKERCvfl-qEp-118" value="&lt;span style=&quot;text-wrap-mode: nowrap;&quot;&gt;1.5. Редактирование публикаций в блоге&lt;/span&gt;" style="text;align=left;verticalAlign=middle;spacingLeft=4;spacingRight=4;overflow=hidden;points=[[0,0.5],[1,0.5]];portConstraint=eastwest;rotatable=0;whiteSpace=wrap;html=1;" vertex="1" parent="vsAvf6VTHKERCvfl-qEp-116">
          <mxGeometry y="61" width="380" height="20" as="geometry" />
        </mxCell>
        <mxCell id="vsAvf6VTHKERCvfl-qEp-142" value="&lt;div style=&quot;text-wrap-mode: nowrap;&quot;&gt;1.6. Удаление публикаций в блоге&lt;/div&gt;" style="text;align=left;verticalAlign=middle;spacingLeft=4;spacingRight=4;overflow=hidden;points=[[0,0.5],[1,0.5]];portConstraint=eastwest;rotatable=0;whiteSpace=wrap;html=1;" vertex="1" parent="vsAvf6VTHKERCvfl-qEp-116">
          <mxGeometry y="81" width="380" height="20" as="geometry" />
        </mxCell>
        <mxCell id="vsAvf6VTHKERCvfl-qEp-143" value="&lt;span style=&quot;text-wrap-mode: nowrap;&quot;&gt;1.7. Загрузка изображений для публикации в блоге&lt;/span&gt;" style="text;align=left;verticalAlign=middle;spacingLeft=4;spacingRight=4;overflow=hidden;points=[[0,0.5],[1,0.5]];portConstraint=eastwest;rotatable=0;whiteSpace=wrap;html=1;fillColor=#f5f5f5;fontColor=#333333;strokeColor=#666666;" vertex="1" parent="vsAvf6VTHKERCvfl-qEp-116">
          <mxGeometry y="101" width="380" height="20" as="geometry" />
        </mxCell>
        <mxCell id="vsAvf6VTHKERCvfl-qEp-144" value="&lt;span style=&quot;text-wrap-mode: nowrap;&quot;&gt;1.10. Пагинация для публикаций&lt;/span&gt;" style="text;align=left;verticalAlign=middle;spacingLeft=4;spacingRight=4;overflow=hidden;points=[[0,0.5],[1,0.5]];portConstraint=eastwest;rotatable=0;whiteSpace=wrap;html=1;" vertex="1" parent="vsAvf6VTHKERCvfl-qEp-116">
          <mxGeometry y="121" width="380" height="20" as="geometry" />
        </mxCell>
        <mxCell id="vsAvf6VTHKERCvfl-qEp-145" value="&lt;span style=&quot;text-wrap-mode: nowrap;&quot;&gt;1.11. Получение списка публикаций&lt;/span&gt;" style="text;align=left;verticalAlign=middle;spacingLeft=4;spacingRight=4;overflow=hidden;points=[[0,0.5],[1,0.5]];portConstraint=eastwest;rotatable=0;whiteSpace=wrap;html=1;" vertex="1" parent="vsAvf6VTHKERCvfl-qEp-116">
          <mxGeometry y="141" width="380" height="20" as="geometry" />
        </mxCell>
        <mxCell id="vsAvf6VTHKERCvfl-qEp-146" value="&lt;span style=&quot;text-wrap-mode: nowrap;&quot;&gt;1.12. Получение списка публикаций с применением сортировки&lt;/span&gt;" style="text;align=left;verticalAlign=middle;spacingLeft=4;spacingRight=4;overflow=hidden;points=[[0,0.5],[1,0.5]];portConstraint=eastwest;rotatable=0;whiteSpace=wrap;html=1;" vertex="1" parent="vsAvf6VTHKERCvfl-qEp-116">
          <mxGeometry y="161" width="380" height="20" as="geometry" />
        </mxCell>
        <mxCell id="vsAvf6VTHKERCvfl-qEp-147" value="&lt;span style=&quot;text-wrap-mode: nowrap;&quot;&gt;1.13. Репост публикаций&lt;/span&gt;" style="text;align=left;verticalAlign=middle;spacingLeft=4;spacingRight=4;overflow=hidden;points=[[0,0.5],[1,0.5]];portConstraint=eastwest;rotatable=0;whiteSpace=wrap;html=1;" vertex="1" parent="vsAvf6VTHKERCvfl-qEp-116">
          <mxGeometry y="181" width="380" height="20" as="geometry" />
        </mxCell>
        <mxCell id="vsAvf6VTHKERCvfl-qEp-148" value="&lt;span style=&quot;text-wrap-mode: nowrap;&quot;&gt;1.15. Категоризация публикаций по тегам&lt;/span&gt;" style="text;align=left;verticalAlign=middle;spacingLeft=4;spacingRight=4;overflow=hidden;points=[[0,0.5],[1,0.5]];portConstraint=eastwest;rotatable=0;whiteSpace=wrap;html=1;" vertex="1" parent="vsAvf6VTHKERCvfl-qEp-116">
          <mxGeometry y="201" width="380" height="20" as="geometry" />
        </mxCell>
        <mxCell id="vsAvf6VTHKERCvfl-qEp-149" value="&lt;span style=&quot;text-wrap-mode: nowrap;&quot;&gt;1.17. Поиск публикаций по названию? опечатка, по тегу?&lt;/span&gt;" style="text;align=left;verticalAlign=middle;spacingLeft=4;spacingRight=4;overflow=hidden;points=[[0,0.5],[1,0.5]];portConstraint=eastwest;rotatable=0;whiteSpace=wrap;html=1;" vertex="1" parent="vsAvf6VTHKERCvfl-qEp-116">
          <mxGeometry y="221" width="380" height="20" as="geometry" />
        </mxCell>
        <mxCell id="vsAvf6VTHKERCvfl-qEp-151" value="&lt;span style=&quot;text-align: center; text-wrap-mode: nowrap;&quot;&gt;1.18. Получение детальной информации о пользователе&lt;/span&gt;&lt;div&gt;&lt;span style=&quot;text-align: center; text-wrap-mode: nowrap;&quot;&gt;Количество публикаций&lt;/span&gt;&lt;/div&gt;" style="text;strokeColor=#d79b00;fillColor=#ffe6cc;align=left;verticalAlign=middle;spacingLeft=4;spacingRight=4;overflow=hidden;points=[[0,0.5],[1,0.5]];portConstraint=eastwest;rotatable=0;whiteSpace=wrap;html=1;" vertex="1" parent="vsAvf6VTHKERCvfl-qEp-116">
          <mxGeometry y="241" width="380" height="39" as="geometry" />
        </mxCell>
        <mxCell id="vsAvf6VTHKERCvfl-qEp-128" value="" style="endArrow=classic;html=1;rounded=0;exitX=1;exitY=0.5;exitDx=0;exitDy=0;entryX=0;entryY=0.5;entryDx=0;entryDy=0;" edge="1" parent="vsAvf6VTHKERCvfl-qEp-115" source="vsAvf6VTHKERCvfl-qEp-118" target="vsAvf6VTHKERCvfl-qEp-131">
          <mxGeometry relative="1" as="geometry">
            <mxPoint x="492" y="252" as="sourcePoint" />
            <mxPoint x="380" y="120" as="targetPoint" />
          </mxGeometry>
        </mxCell>
        <mxCell id="vsAvf6VTHKERCvfl-qEp-131" value="PostrgeSQL" style="shape=datastore;whiteSpace=wrap;html=1;fontSize=12;" vertex="1" parent="vsAvf6VTHKERCvfl-qEp-115">
          <mxGeometry x="450" y="60" width="80" height="140" as="geometry" />
        </mxCell>
        <mxCell id="vsAvf6VTHKERCvfl-qEp-180" value="&lt;span style=&quot;font-weight: 700;&quot;&gt;blog-user&lt;/span&gt;" style="swimlane;fontStyle=0;childLayout=stackLayout;horizontal=1;startSize=21;horizontalStack=0;resizeParent=1;resizeParentMax=0;resizeLast=0;collapsible=1;marginBottom=0;whiteSpace=wrap;html=1;movable=1;resizable=1;rotatable=1;deletable=1;editable=1;locked=0;connectable=1;fillColor=#e1d5e7;strokeColor=#9673a6;" vertex="1" parent="vsAvf6VTHKERCvfl-qEp-115">
          <mxGeometry x="20" y="340" width="380" height="41" as="geometry" />
        </mxCell>
        <mxCell id="vsAvf6VTHKERCvfl-qEp-183" value="&lt;span style=&quot;text-wrap-mode: nowrap;&quot;&gt;1.8. Комментирование публикаций в блоге&lt;/span&gt;" style="text;align=left;verticalAlign=middle;spacingLeft=4;spacingRight=4;overflow=hidden;points=[[0,0.5],[1,0.5]];portConstraint=eastwest;rotatable=0;whiteSpace=wrap;html=1;" vertex="1" parent="vsAvf6VTHKERCvfl-qEp-180">
          <mxGeometry y="21" width="380" height="20" as="geometry" />
        </mxCell>
        <mxCell id="vsAvf6VTHKERCvfl-qEp-187" value="&lt;span style=&quot;font-weight: 700;&quot;&gt;blog-like&lt;/span&gt;" style="swimlane;fontStyle=0;childLayout=stackLayout;horizontal=1;startSize=21;horizontalStack=0;resizeParent=1;resizeParentMax=0;resizeLast=0;collapsible=1;marginBottom=0;whiteSpace=wrap;html=1;movable=1;resizable=1;rotatable=1;deletable=1;editable=1;locked=0;connectable=1;fillColor=#e1d5e7;strokeColor=#9673a6;" vertex="1" parent="vsAvf6VTHKERCvfl-qEp-115">
          <mxGeometry x="20" y="400" width="380" height="41" as="geometry" />
        </mxCell>
        <mxCell id="vsAvf6VTHKERCvfl-qEp-188" value="&lt;span style=&quot;text-wrap-mode: nowrap;&quot;&gt;1.9. Лайки к публикациям.&lt;/span&gt;" style="text;align=left;verticalAlign=middle;spacingLeft=4;spacingRight=4;overflow=hidden;points=[[0,0.5],[1,0.5]];portConstraint=eastwest;rotatable=0;whiteSpace=wrap;html=1;" vertex="1" parent="vsAvf6VTHKERCvfl-qEp-187">
          <mxGeometry y="21" width="380" height="20" as="geometry" />
        </mxCell>
        <mxCell id="vsAvf6VTHKERCvfl-qEp-135" value="" style="endArrow=classic;html=1;rounded=0;entryX=0;entryY=0.5;entryDx=0;entryDy=0;exitX=1;exitY=0.25;exitDx=0;exitDy=0;" edge="1" parent="1" source="vsAvf6VTHKERCvfl-qEp-60" target="vsAvf6VTHKERCvfl-qEp-115">
          <mxGeometry relative="1" as="geometry">
            <mxPoint x="560" y="330" as="sourcePoint" />
            <mxPoint x="590" y="210" as="targetPoint" />
          </mxGeometry>
        </mxCell>
        <mxCell id="vsAvf6VTHKERCvfl-qEp-136" value="&lt;div&gt;&lt;br&gt;&lt;/div&gt;Добавление&lt;br&gt;&amp;nbsp; &amp;nbsp; идентификатора&amp;nbsp; &amp;nbsp;&lt;br&gt;пользователя&amp;nbsp;&amp;nbsp;&lt;div&gt;&lt;br&gt;&lt;/div&gt;" style="edgeLabel;resizable=0;;align=center;verticalAlign=middle;labelBackgroundColor=light-dark(#d8ead7, #004400);spacingTop=0;spacingLeft=0;spacing=0;spacingRight=0;html=1;textShadow=0;labelBorderColor=default;" connectable="0" vertex="1" parent="vsAvf6VTHKERCvfl-qEp-135">
          <mxGeometry relative="1" as="geometry" />
        </mxCell>
        <mxCell id="Nwkl9uQ9HmGx1w59XUbe-39" value="blog-subscription" style="swimlane;whiteSpace=wrap;html=1;align=center;fontSize=12;" parent="1" vertex="1">
          <mxGeometry x="595" y="650" width="401" height="60" as="geometry" />
        </mxCell>
        <mxCell id="Nwkl9uQ9HmGx1w59XUbe-40" value="&lt;font&gt;1.20. Подписка на обновления других пользователей&lt;/font&gt;" style="text;html=1;align=left;verticalAlign=middle;resizable=0;points=[];autosize=1;strokeColor=none;fillColor=none;fontSize=12;" parent="Nwkl9uQ9HmGx1w59XUbe-39" vertex="1">
          <mxGeometry x="5" y="30" width="320" height="30" as="geometry" />
        </mxCell>
        <mxCell id="Nwkl9uQ9HmGx1w59XUbe-46" value="blog-band" style="swimlane;whiteSpace=wrap;html=1;align=center;fontSize=12;" parent="1" vertex="1">
          <mxGeometry x="595" y="720" width="401" height="60" as="geometry" />
        </mxCell>
        <mxCell id="Nwkl9uQ9HmGx1w59XUbe-47" value="&lt;font&gt;1.14. Лента пользователя&lt;/font&gt;" style="text;html=1;align=left;verticalAlign=middle;resizable=0;points=[];autosize=1;strokeColor=none;fillColor=none;fontSize=12;" parent="Nwkl9uQ9HmGx1w59XUbe-46" vertex="1">
          <mxGeometry x="5" y="30" width="170" height="30" as="geometry" />
        </mxCell>
      </root>
    </mxGraphModel>
  </diagram>
</mxfile>
